<?xml version="1.0" encoding="UTF-8"?>
<!DOCTYPE svg PUBLIC "-//W3C//DTD SVG 1.1//EN" "http://www.w3.org/Graphics/SVG/1.1/DTD/svg11.dtd">
<!-- Creator: CorelDRAW X7 -->
<svg xmlns="http://www.w3.org/2000/svg" xml:space="preserve" width="20cm" height="8cm" version="1.1" style="shape-rendering:geometricPrecision; text-rendering:geometricPrecision; image-rendering:optimizeQuality; fill-rule:evenodd; clip-rule:evenodd"
viewBox="0 0 20000 8000"
 xmlns:xlink="http://www.w3.org/1999/xlink">
 <defs>
  <style type="text/css">
   <![CDATA[
    .fil0 {fill:#C62D36}
   ]]>
  </style>
 </defs>
 <g id="Layer_x0020_1">
  <metadata id="CorelCorpID_0Corel-Layer"/>
  <g id="_337555752">
   <path class="fil0" d="M2423 2452c4,47 103,149 141,187l425 466c9,10 6,5 18,22 14,20 9,7 19,33 63,-5 145,-52 301,-52 673,0 1227,800 652,1490 -119,143 -357,254 -536,303 -432,117 -1114,81 -1597,81l0 13c72,0 77,12 144,14 55,2 116,-4 171,-1l1258 66c177,-1 460,26 643,26l327 26 -2425 27c111,0 177,14 275,13l2019 92 -2176 0c82,122 364,300 511,367 586,262 1214,194 1744,-158 282,-186 455,-415 603,-708 233,-461 223,-1045 5,-1512 -15,-30 -19,-44 -34,-71 -416,-764 -1225,-1129 -2098,-884 -77,22 -134,41 -202,73 -33,15 -57,25 -90,41 -41,21 -49,35 -98,46z"/>
   <path class="fil0" d="M9830 4550l-118 0 0 -420c167,0 472,-23 472,210 0,227 -250,210 -354,210zm52 -735l-170 0 0 -380 236 0c104,0 210,67 210,171 0,143 -134,209 -276,209zm-629 -681l0 1756c229,0 356,-5 578,13 61,5 112,-9 182,-13 224,-11 414,-96 554,-258 205,-237 73,-663 -200,-685l0 -27c262,-61 396,-525 79,-720 -93,-57 -258,-106 -406,-106l-748 0c-30,0 -39,10 -39,40z"/>
   <path class="fil0" d="M6513 4537l-65 0c-242,0 -394,-216 -394,-459 0,-205 -18,-353 146,-510 2,-3 11,-10 13,-13 181,-164 502,-132 626,53 199,297 119,929 -326,929zm-944 -538c0,132 16,266 48,372 95,324 381,546 752,546 336,0 560,-37 797,-279 68,-69 139,-178 179,-279 218,-557 -16,-1291 -779,-1291 -240,0 -409,37 -598,163 -255,169 -399,453 -399,768z"/>
   <path class="fil0" d="M13514 4602l-262 0 0 -498c121,0 289,-7 393,39 229,99 156,459 -131,459zm-131 -760l-131 0 0 -459c154,0 498,-69 498,210 0,188 -176,249 -367,249zm-498 -708l0 1717c0,73 286,31 432,39 59,4 50,14 105,14l312 -43c95,-22 243,-103 301,-171 150,-175 181,-408 48,-605 -40,-60 -138,-136 -228,-138l0 -27c128,-10 275,-189 275,-406 0,-278 -268,-420 -551,-420l-655 0c-30,0 -39,10 -39,40z"/>
   <path class="fil0" d="M10853 3973c0,179 -5,344 76,500 161,311 420,444 815,444 301,0 345,-54 485,-66 0,-91 -22,-249 -38,-330 -20,-103 -63,2 -277,2l-144 0c-264,0 -419,-218 -419,-485 0,-155 7,-301 114,-423 221,-248 603,-103 712,-101l52 -380c-216,-18 -118,-40 -472,-40 -116,0 -286,39 -371,75 -47,20 -104,49 -148,75 -69,41 -126,93 -174,154 -22,28 -30,34 -52,66 -96,141 -159,318 -159,509z"/>
   <path class="fil0" d="M7588 4025c0,564 300,892 905,892 144,0 391,-34 485,-79l-53 -367c-252,59 -163,52 -432,52 -113,0 -247,-70 -297,-136 -206,-272 -143,-912 297,-912 359,0 247,25 419,39 18,-76 53,-296 53,-380 -79,-7 -135,-40 -289,-40 -332,0 -586,18 -836,266 -148,148 -252,375 -252,665z"/>
   <path class="fil0" d="M17250 2990l0 1861c0,30 9,39 40,39l314 0 0 -629c10,11 13,14 24,29 10,14 17,25 26,39l357 561 445 0c-42,-79 -352,-494 -432,-616 -22,-33 -45,-61 -66,-91 34,-65 227,-300 289,-380 18,-25 34,-49 56,-75 32,-39 102,-117 114,-162l-433 0 -181 265c-38,50 -162,235 -199,260l1 -1023c2,-145 41,-118 -315,-118 -31,0 -40,9 -40,40z"/>
   <path class="fil0" d="M2606 4497l0 0zm-13 -26l13 26 -13 -26zm0 0c-104,-76 -144,-359 -144,-511l-865 -302c-81,170 -29,735 65,931l1810 0 0 -275c-162,-38 -851,-308 -931,-315 0,412 54,343 65,472z"/>
   <path class="fil0" d="M15100 4314c-10,126 -44,206 -121,272 -246,208 -451,-105 -220,-221 93,-47 198,-51 341,-51zm-695 -695c0,94 27,181 27,288 48,-4 131,-43 188,-60 66,-19 140,-32 218,-32 196,0 262,66 262,263 -312,0 -610,85 -726,283 -204,351 140,707 586,494 73,-35 118,-93 166,-148 0,227 -107,183 328,183l0 -878c0,-613 -658,-484 -1049,-393z"/>
   <path class="fil0" d="M16097 3763l0 0zm0 0l0 -197 -328 0 0 1324 341 0c0,-317 -92,-936 251,-1046 267,-86 234,242 234,391 0,218 0,437 0,655l341 0 0 -904c0,-172 -26,-332 -197,-407 -51,-22 -180,-46 -257,-34 -206,32 -279,95 -385,218z"/>
   <path class="fil0" d="M1597 3593c42,3 165,56 213,74 74,29 142,54 208,81l431 159c5,-206 138,-362 144,-432 -44,-12 -143,-81 -191,-111l-372 -231c-67,-40 -126,-80 -197,-117 -47,88 -98,169 -139,267 -30,74 -90,228 -97,310z"/>
   <path class="fil0" d="M1898 2950c122,81 237,158 362,241l373 244c117,-78 41,-90 340,-249 -44,-66 -608,-633 -642,-655 -106,28 -262,215 -337,292 -33,33 -83,81 -96,127z"/>
   <path class="fil0" d="M2541 3947c70,16 159,55 230,84l455 174c53,21 181,78 233,82l0 -275c-54,-12 -652,-408 -748,-459 -66,99 -158,246 -170,394z"/>
   <path class="fil0" d="M1938 4930c84,0 951,9 990,-6 8,-3 155,-165 163,-178l-799 0c-67,-125 -86,-105 -262,-105 -123,0 -245,0 -368,0 12,23 31,80 40,92 27,40 44,23 100,45 66,26 119,81 136,152z"/>
   <path class="fil0" d="M2751 3527c43,12 294,187 351,226l357 233c0,-377 36,-285 -109,-429 -68,-69 -226,-211 -272,-279 -98,47 -297,137 -327,249z"/>
  </g>
 </g>
</svg>
